<?xml version="1.0" encoding="utf-8"?>
<!-- Uploaded to: SVG Repo, www.svgrepo.com, Generator: SVG Repo Mixer Tools -->
<svg width="800px" height="800px" viewBox="0 0 1024 1024" class="icon"  version="1.1" xmlns="http://www.w3.org/2000/svg"><path d="M512 549.332c-41.161 0-74.667-33.506-74.667-74.667v-336C437.333 97.468 470.839 64 512 64c41.196 0 74.666 33.468 74.666 74.665v336c0 41.161-33.47 74.667-74.666 74.667z" fill="#0DB14B" /><path d="M545.69 72.395c5.189 10.166 8.396 21.505 8.396 33.688v336c0 41.161-33.469 74.665-74.667 74.665-12.175 0-23.512-3.211-33.679-8.405 12.366 24.201 37.277 40.986 66.261 40.986 41.198 0 74.666-33.504 74.666-74.665v-336c-0.001-29.013-16.769-53.911-40.977-66.269z" fill="#070707" /><path d="M512 959.998c-226.405 0-410.667-184.225-410.667-410.667 0-157.263 92.131-302.751 234.647-370.601 5.831-2.733 12.616-2.332 18.009 1.075a18.646 18.646 0 0 1 8.677 15.77v130.156c0 5.891-2.733 11.412-7.437 14.914-66.426 50.02-104.563 126.09-104.563 208.686 0 144.084 117.249 261.333 261.333 261.333 144.122 0 261.333-117.249 261.333-261.333 0-82.596-38.099-158.667-104.563-208.686a18.64 18.64 0 0 1-7.437-14.914V195.576a18.594 18.594 0 0 1 8.714-15.77c5.394-3.407 12.215-3.808 17.975-1.075 142.551 67.85 234.645 213.337 234.645 370.601 0.001 226.441-184.187 410.666-410.666 410.666z" fill="#FF3B30" /><path d="M313.794 293.15c0 5.89-2.733 11.411-7.436 14.914-66.428 50.019-104.564 126.091-104.564 208.684 0 101.026 57.746 188.673 141.864 232.149-56.785-47.978-92.991-119.594-92.991-199.568 0-82.592 38.137-158.665 104.563-208.684 4.704-3.503 7.437-9.024 7.437-14.914V195.576a18.635 18.635 0 0 0-8.677-15.766c-5.394-3.412-12.178-3.809-18.009-1.078-7.565 3.603-14.911 7.537-22.187 11.566V293.15zM713.94 192.239c99.137 76.908 159.854 196.822 159.854 324.51 0 226.441-184.188 410.668-410.667 410.668-73.461 0-142.426-19.488-202.158-53.43C330.443 927.831 417.518 960 512 960c226.479 0 410.667-184.228 410.667-410.67 0-147.51-81.033-284.657-208.727-357.091z" fill="#070707" /></svg>