<?xml version="1.0" encoding="iso-8859-1"?>
<!-- Uploaded to: SVG Repo, www.svgrepo.com, Generator: SVG Repo Mixer Tools -->
<svg version="1.1" id="Layer_1" xmlns="http://www.w3.org/2000/svg" xmlns:xlink="http://www.w3.org/1999/xlink" 
	 viewBox="0 0 512 512" xml:space="preserve">
<path style="fill:#446080;" d="M122.435,133.565c0,73.766,0,133.565,0,133.565h66.783V133.565c0-36.824,29.959-66.783,66.783-66.783
	l22.261-33.391L256,0C182.234,0,122.435,59.799,122.435,133.565z"/>
<path style="fill:#324860;" d="M256,0v66.783c36.824,0,66.783,29.959,66.783,66.783V267.13h66.783c0,0,0-59.799,0-133.565
	S329.766,0,256,0z"/>
<polygon style="fill:#6790BF;" points="89.043,244.87 89.043,512 256,512 278.261,378.435 256,244.87 "/>
<rect x="256" y="244.87" style="fill:#446080;" width="166.957" height="267.13"/>
<path style="fill:#263648;" d="M289.391,361.739c0-18.442-14.949-33.391-33.391-33.391s-33.391,14.949-33.391,33.391
	c0,12.357,6.718,23.139,16.696,28.914v49h33.391v-49C282.673,384.878,289.391,374.096,289.391,361.739z"/>
</svg>