<svg xmlns="http://www.w3.org/2000/svg" viewBox="0 0 100 100" preserveAspectRatio="xMidYMid" width="100%" height="100%" style="shape-rendering: auto; display: block; background: transparent;" xmlns:xlink="http://www.w3.org/1999/xlink"><g><g transform="rotate(0 50 50)">
  <rect fill="#0099cc" height="9" width="3" ry="0" rx="0" y="33.5" x="48.5">
    <animate repeatCount="indefinite" begin="-1.1695906432748537s" dur="1.3157894736842106s" keyTimes="0;1" values="1;0" attributeName="opacity"></animate>
  </rect>
</g><g transform="rotate(40 50 50)">
  <rect fill="#0fab0a" height="9" width="3" ry="0" rx="0" y="33.5" x="48.5">
    <animate repeatCount="indefinite" begin="-1.023391812865497s" dur="1.3157894736842106s" keyTimes="0;1" values="1;0" attributeName="opacity"></animate>
  </rect>
</g><g transform="rotate(80 50 50)">
  <rect fill="#0099cc" height="9" width="3" ry="0" rx="0" y="33.5" x="48.5">
    <animate repeatCount="indefinite" begin="-0.8771929824561404s" dur="1.3157894736842106s" keyTimes="0;1" values="1;0" attributeName="opacity"></animate>
  </rect>
</g><g transform="rotate(120 50 50)">
  <rect fill="#0fab0a" height="9" width="3" ry="0" rx="0" y="33.5" x="48.5">
    <animate repeatCount="indefinite" begin="-0.7309941520467836s" dur="1.3157894736842106s" keyTimes="0;1" values="1;0" attributeName="opacity"></animate>
  </rect>
</g><g transform="rotate(160 50 50)">
  <rect fill="#0099cc" height="9" width="3" ry="0" rx="0" y="33.5" x="48.5">
    <animate repeatCount="indefinite" begin="-0.5847953216374269s" dur="1.3157894736842106s" keyTimes="0;1" values="1;0" attributeName="opacity"></animate>
  </rect>
</g><g transform="rotate(200 50 50)">
  <rect fill="#0fab0a" height="9" width="3" ry="0" rx="0" y="33.5" x="48.5">
    <animate repeatCount="indefinite" begin="-0.4385964912280702s" dur="1.3157894736842106s" keyTimes="0;1" values="1;0" attributeName="opacity"></animate>
  </rect>
</g><g transform="rotate(240 50 50)">
  <rect fill="#0099cc" height="9" width="3" ry="0" rx="0" y="33.5" x="48.5">
    <animate repeatCount="indefinite" begin="-0.29239766081871343s" dur="1.3157894736842106s" keyTimes="0;1" values="1;0" attributeName="opacity"></animate>
  </rect>
</g><g transform="rotate(280 50 50)">
  <rect fill="#0fab0a" height="9" width="3" ry="0" rx="0" y="33.5" x="48.5">
    <animate repeatCount="indefinite" begin="-0.14619883040935672s" dur="1.3157894736842106s" keyTimes="0;1" values="1;0" attributeName="opacity"></animate>
  </rect>
</g><g transform="rotate(320 50 50)">
  <rect fill="#0099cc" height="9" width="3" ry="0" rx="0" y="33.5" x="48.5">
    <animate repeatCount="indefinite" begin="0s" dur="1.3157894736842106s" keyTimes="0;1" values="1;0" attributeName="opacity"></animate>
  </rect>
</g><g></g></g><!-- [ldio] generated by https://loading.io --></svg>