<svg width="100" height="100" viewBox="0 0 100 100" xmlns="http://www.w3.org/2000/svg">
  <!-- Folder Base -->
  <path d="M15 30 L15 75 Q15 80 20 80 L80 80 Q85 80 85 75 L85 35 Q85 30 80 30 L50 30 L45 25 Q43 23 40 23 L20 23 Q15 23 15 28 Z" 
        fill="#FFB84D" 
        stroke="#E6A43D" 
        stroke-width="1.5"/>
  
  <!-- Folder Tab -->
  <path d="M15 28 Q15 23 20 23 L40 23 Q43 23 45 25 L50 30 L80 30 Q85 30 85 35 L85 32 Q85 27 80 27 L50 27 L45 22 Q43 20 40 20 L20 20 Q15 20 15 25 Z" 
        fill="#FFC766"/>
  
  <!-- File entering folder (ultra smooth continuous animation) -->
  <g>
    <animateTransform
      attributeName="transform"
      type="translate"
      values="70,-8;0,20"
      dur="3s"
      repeatCount="indefinite"
      calcMode="spline"
      keySplines="0.25,0.46,0.45,0.94"
      keyTimes="0;1"/>
    
    <!-- Smooth continuous opacity -->
    <animate
      attributeName="opacity"
      values="0;1;0"
      dur="3s"
      repeatCount="indefinite"
      calcMode="spline"
      keySplines="0.42,0,0.58,1;0.42,0,0.58,1"
      keyTimes="0;0.5;1"/>
    
    <!-- Smooth continuous scale -->
    <animateTransform
      attributeName="transform"
      type="scale"
      values="0.8;1;0.3"
      dur="3s"
      repeatCount="indefinite"
      calcMode="spline"
      keySplines="0.42,0,0.58,1;0.42,0,0.58,1"
      keyTimes="0;0.5;1"
      additive="sum"/>
    
    <!-- File shadow -->
    <rect x="33" y="15" width="30" height="35" rx="2" 
          fill="rgba(0,0,0,0.15)" 
          transform="translate(2,2)">
      <animate
        attributeName="opacity"
        values="0;0.4;0"
        dur="3s"
        repeatCount="indefinite"
        calcMode="spline"
        keySplines="0.42,0,0.58,1;0.42,0,0.58,1"
        keyTimes="0;0.5;1"/>
    </rect>
    
    <!-- File body -->
    <rect x="33" y="15" width="30" height="35" rx="2" 
          fill="#4A9EFF" 
          stroke="#3B82F6" 
          stroke-width="1"/>
    
    <!-- File corner fold -->
    <path d="M57 15 L57 21 L63 21 Z" 
          fill="#E5F3FF"/>
    <path d="M57 15 L57 21 L63 21 Z" 
          fill="none" 
          stroke="#3B82F6" 
          stroke-width="1"/>
    
    <!-- File content lines -->
    <line x1="36" y1="25" x2="54" y2="25" stroke="#E5F3FF" stroke-width="1.5" stroke-linecap="round"/>
    <line x1="36" y1="29" x2="57" y2="29" stroke="#E5F3FF" stroke-width="1.5" stroke-linecap="round"/>
    <line x1="36" y1="33" x2="52" y2="33" stroke="#E5F3FF" stroke-width="1.5" stroke-linecap="round"/>
    <line x1="36" y1="37" x2="55" y2="37" stroke="#E5F3FF" stroke-width="1.5" stroke-linecap="round"/>
    
    <!-- YouTube logo -->
    <rect x="44" y="39" width="8" height="6" rx="1" fill="#FF0000"/>
    <path d="M46.5 40.5 L46.5 43.5 L49 42 Z" fill="white"/>
  </g>
  
  <!-- Progress dots (optional loading indicator) -->
  <g opacity="0.7">
    <circle cx="25" cy="85" r="2" fill="#666">
      <animate attributeName="opacity" values="0.3;1;0.3" dur="1.5s" repeatCount="indefinite" begin="0s"/>
    </circle>
    <circle cx="33" cy="85" r="2" fill="#666">
      <animate attributeName="opacity" values="0.3;1;0.3" dur="1.5s" repeatCount="indefinite" begin="0.5s"/>
    </circle>
    <circle cx="41" cy="85" r="2" fill="#666">
      <animate attributeName="opacity" values="0.3;1;0.3" dur="1.5s" repeatCount="indefinite" begin="1s"/>
    </circle>
  </g>
</svg>

