<?xml version="1.0" encoding="iso-8859-1"?>
<!-- Uploaded to: SVG Repo, www.svgrepo.com, Generator: SVG Repo Mixer Tools -->
<svg height="800px" width="800px" version="1.1" id="Layer_1" xmlns="http://www.w3.org/2000/svg" xmlns:xlink="http://www.w3.org/1999/xlink" 
	 viewBox="0 0 512 512" xml:space="preserve">
<path style="fill:#7F4122;" d="M464,288l-32-104H80L48,288h104c4.416,0,8,3.584,8,8v48c0,4.416,3.584,8,8,8h176c4.416,0,8-3.584,8-8
	v-48c0-4.416,3.584-8,8-8H464z"/>
<path style="fill:#A35425;" d="M459.84,170.48c-2.304-6.28-8.272-10.456-14.96-10.48H67.12c-6.712-0.008-12.72,4.176-15.04,10.48
	L0,312h160v-16c0-4.416-3.584-8-8-8H48l32-104h352l32,104H360c-4.416,0-8,3.584-8,8v16h160L459.84,170.48z"/>
<path style="fill:#C97629;" d="M352,312v32c0,4.416-3.584,8-8,8H168c-4.416,0-8-3.584-8-8v-32H0v112c0,13.256,10.744,24,24,24h464
	c13.256,0,24-10.744,24-24V312H352z"/>
<path style="fill:#A35425;" d="M160,328h192l0,0v16c0,4.416-3.584,8-8,8H168c-4.416,0-8-3.584-8-8V328L160,328z"/>
<path style="fill:#B06328;" d="M496,352v72c0,4.416-3.584,8-8,8H40c-8.84,0-16,7.16-16,16h464c13.256,0,24-10.744,24-24v-88l0,0
	C503.16,336,496,343.16,496,352z"/>
<g>
	<path style="fill:#DA8C36;" d="M0,312h160l0,0l0,0c0,8.84-7.16,16-16,16H16C7.16,328,0,320.84,0,312L0,312L0,312z"/>
	<path style="fill:#DA8C36;" d="M352,312h160l0,0l0,0c0,8.84-7.16,16-16,16H368C359.16,328,352,320.84,352,312L352,312L352,312z"/>
</g>
<polygon style="fill:#73371B;" points="431.92,184 409.12,184 102.8,184 80.08,184 48,288 80,288 88,240 424,240 432,288 464,288 
	"/>
<circle style="fill:#3CB54A;" cx="256" cy="168" r="104"/>
<path style="fill:#FFFFFF;" d="M306.24,155.68c-6.792-5.656-16.88-4.736-22.536,2.048c-0.008,0.008-0.016,0.024-0.024,0.032
	L272,171.84V120c0-8.84-7.16-16-16-16s-16,7.16-16,16v51.84l-11.68-14.08c-5.408-6.992-15.456-8.272-22.448-2.864
	s-8.272,15.456-2.864,22.448c0.24,0.312,0.488,0.608,0.752,0.904l40,48c5.664,6.784,15.752,7.688,22.536,2.024
	c0.736-0.616,1.408-1.288,2.024-2.024l40-48c5.656-6.792,4.736-16.88-2.048-22.536C306.264,155.696,306.248,155.688,306.24,155.68z"
	/>
<path style="fill:#0E9347;" d="M256,272c-4.416,0-8-3.584-8-8s3.584-8,8-8c48.6,0,88-39.4,88-88c0-4.416,3.584-8,8-8s8,3.584,8,8
	C360,225.44,313.44,272,256,272z"/>
<path style="fill:#89C763;" d="M256,64c4.416,0,8,3.584,8,8s-3.584,8-8,8c-48.6,0-88,39.4-88,88c0,4.416-3.584,8-8,8s-8-3.584-8-8
	C152,110.56,198.56,64,256,64z"/>
</svg>