<?xml version="1.0" encoding="iso-8859-1"?>
<!-- Uploaded to: SVG Repo, www.svgrepo.com, Generator: SVG Repo Mixer Tools -->
<svg height="800px" width="800px" version="1.1" id="Layer_1" xmlns="http://www.w3.org/2000/svg" xmlns:xlink="http://www.w3.org/1999/xlink" 
	 viewBox="0 0 512.309 512.309" xml:space="preserve">
<g>
	<path style="fill:#A47549;" d="M415.205,141.396c0-19.5-15.81-35.31-35.31-35.31H264.827L220.689,53.12H61.792
		c-14.627,0-26.483,11.855-26.483,26.483v61.793H415.205z"/>
	<path style="fill:#F4A551;" d="M467.862,167.879v264.828c0,14.627-11.855,26.483-26.483,26.483H26.174
		C11.546,459.189,0,447.333,0,432.706V167.879c0-14.627,11.546-26.483,26.174-26.483h415.206
		C456.007,141.396,467.862,153.251,467.862,167.879"/>
	<path style="fill:#A47549;" d="M477.09,176.706c22.475,0,39.194,20.771,34.392,42.726l-43.617,204.447V176.706H477.09z"/>
	<path style="fill:#FFFFFF;" d="M326.621,406.223H141.241c-19.5,0-35.31-15.81-35.31-35.31V229.672c0-19.5,15.81-35.31,35.31-35.31
		h185.379c19.5,0,35.31,15.81,35.31,35.31v141.241C361.931,390.413,346.121,406.223,326.621,406.223"/>
	<polygon style="fill:#DD342E;" points="291.31,300.292 176.552,362.085 176.552,238.499 	"/>
</g>
</svg>